<svg width="192" height="192" viewBox="0 0 192 192" fill="none" xmlns="http://www.w3.org/2000/svg">
  <!-- Medium-resolution Dota 2 themed icon for PWA -->
  <defs>
    <linearGradient id="heroGradient192" x1="0%" y1="0%" x2="100%" y2="100%">
      <stop offset="0%" style="stop-color:#FF6B35;stop-opacity:1" />
      <stop offset="50%" style="stop-color:#F7931E;stop-opacity:1" />
      <stop offset="100%" style="stop-color:#FFD23F;stop-opacity:1" />
    </linearGradient>
    <linearGradient id="backgroundGradient192" x1="0%" y1="0%" x2="100%" y2="100%">
      <stop offset="0%" style="stop-color:#1A1A2E;stop-opacity:1" />
      <stop offset="100%" style="stop-color:#16213E;stop-opacity:1" />
    </linearGradient>
    <filter id="glow192">
      <feGaussianBlur stdDeviation="3" result="coloredBlur"/>
      <feMerge> 
        <feMergeNode in="coloredBlur"/>
        <feMergeNode in="SourceGraphic"/>
      </feMerge>
    </filter>
  </defs>
  
  <!-- Background circle -->
  <circle cx="96" cy="96" r="96" fill="url(#backgroundGradient192)"/>
  
  <!-- Main emblem -->
  <g filter="url(#glow192)">
    <!-- Hexagonal shape -->
    <path d="M96 24L144 54V138L96 168L48 138V54L96 24Z" 
          fill="url(#heroGradient192)" 
          stroke="#FFD23F" 
          stroke-width="2"/>
    
    <!-- Central core -->
    <circle cx="96" cy="96" r="30" fill="#FFD23F" opacity="0.8"/>
    <circle cx="96" cy="96" r="20" fill="#FF6B35"/>
    <circle cx="96" cy="96" r="10" fill="#FFF59D" opacity="0.8"/>
    
    <!-- Corner accents -->
    <circle cx="72" cy="72" r="9" fill="#F7931E" opacity="0.6"/>
    <circle cx="120" cy="72" r="9" fill="#F7931E" opacity="0.6"/>
    <circle cx="72" cy="120" r="9" fill="#F7931E" opacity="0.6"/>
    <circle cx="120" cy="120" r="9" fill="#F7931E" opacity="0.6"/>
    
    <!-- Radiating lines -->
    <g stroke="#FFD23F" stroke-width="2" opacity="0.7">
      <line x1="96" y1="66" x2="96" y2="54"/>
      <line x1="96" y1="138" x2="96" y2="126"/>
      <line x1="66" y1="96" x2="54" y2="96"/>
      <line x1="138" y1="96" x2="126" y2="96"/>
    </g>
  </g>
</svg>